<?xml version="1.0" encoding="UTF-8"?>
<svg version="1.1" xmlns="http://www.w3.org/2000/svg" width="100" height="100">
<path d="M0 0 C0.73856232 -0.00570007 1.47712463 -0.01140015 2.23806763 -0.01727295 C3.79981051 -0.02671145 5.3615732 -0.03325237 6.92333984 -0.03710938 C9.30471776 -0.04681146 11.68523094 -0.07784278 14.06640625 -0.109375 C15.58593239 -0.11590594 17.10546469 -0.12115606 18.625 -0.125 C19.68773636 -0.1435202 19.68773636 -0.1435202 20.77194214 -0.16241455 C25.19399537 -0.14262611 27.91786067 0.52018429 31.4453125 3.203125 C35.5433012 7.74413951 35.71324472 11.01097219 35.453125 16.8203125 C35.44304671 19.8941897 36.44116026 22.31618732 37.4453125 25.203125 C37.66242759 27.9246374 37.58462753 30.46326282 37.4453125 33.203125 C37.1153125 33.533125 36.7853125 33.863125 36.4453125 34.203125 C36.2199794 36.2311229 35.99764065 38.25987374 35.82421875 40.29296875 C35.4453125 42.203125 35.4453125 42.203125 33.4453125 44.203125 C31.39599609 44.45709229 31.39599609 44.45709229 28.84375 44.46191406 C27.88936035 44.46821838 26.9349707 44.47452271 25.95166016 44.48101807 C24.91831543 44.4769696 23.8849707 44.47292114 22.8203125 44.46875 C21.76247559 44.47066345 20.70463867 44.4725769 19.61474609 44.47454834 C17.37532311 44.47591102 15.13589224 44.47220882 12.89648438 44.46386719 C9.45945573 44.45316902 6.0229498 44.46375988 2.5859375 44.4765625 C0.41406134 44.47524092 -1.75781449 44.47267856 -3.9296875 44.46875 C-4.96303223 44.47279846 -5.99637695 44.47684692 -7.06103516 44.48101807 C-8.0154248 44.47471375 -8.96981445 44.46840942 -9.953125 44.46191406 C-10.79536621 44.46032288 -11.63760742 44.45873169 -12.50537109 44.45709229 C-14.5546875 44.203125 -14.5546875 44.203125 -16.5546875 42.203125 C-16.93359375 40.29296875 -16.93359375 40.29296875 -17.1171875 38.140625 C-17.11382198 34.43575883 -17.11382198 34.43575883 -18.5546875 33.203125 C-18.75867188 29.19143221 -18.90228562 26.18074472 -17.5546875 22.390625 C-16.52695857 19.11473904 -16.60194256 17.14777919 -16.8046875 13.765625 C-16.90282265 9.5342682 -16.48252905 7.34364258 -13.7421875 4.078125 C-9.70246506 -0.09126754 -5.52218224 0.03293657 0 0 Z M-9.5546875 7.203125 C-11.92448763 10.15689998 -11.92448763 10.15689998 -11.5546875 14.203125 C2.3053125 14.203125 16.1653125 14.203125 30.4453125 14.203125 C30.09193999 8.49858775 30.09193999 8.49858775 27.6328125 6.390625 C22.03204633 3.35020908 15.83864011 3.98276477 9.6328125 3.953125 C8.56482422 3.9325 7.49683594 3.911875 6.39648438 3.890625 C0.31148547 3.86051987 -4.24826599 4.10469607 -9.5546875 7.203125 Z M-10.5546875 18.203125 C-10.8846875 19.523125 -11.2146875 20.843125 -11.5546875 22.203125 C-10.50410156 22.25210938 -9.45351563 22.30109375 -8.37109375 22.3515625 C4.40393706 23.01207755 4.40393706 23.01207755 9.5703125 24.328125 C13.38072233 25.18854012 15.71067331 25.23015078 19.4453125 24.203125 C19.7753125 23.873125 20.1053125 23.543125 20.4453125 23.203125 C22.12715198 22.97025492 23.8165541 22.79048334 25.5078125 22.640625 C26.42691406 22.55683594 27.34601563 22.47304687 28.29296875 22.38671875 C29.00324219 22.32613281 29.71351562 22.26554687 30.4453125 22.203125 C29.9503125 20.223125 29.9503125 20.223125 29.4453125 18.203125 C16.2453125 18.203125 3.0453125 18.203125 -10.5546875 18.203125 Z M-13.5546875 27.203125 C-13.5546875 28.523125 -13.5546875 29.843125 -13.5546875 31.203125 C-11.28034574 32.34029588 -10.02885795 32.32978884 -7.50390625 32.33251953 C-6.66964111 32.33567169 -5.83537598 32.33882385 -4.97583008 32.34207153 C-4.07372803 32.3400473 -3.17162598 32.33802307 -2.2421875 32.3359375 C-1.31752686 32.33689423 -0.39286621 32.33785095 0.55981445 32.33883667 C2.51676501 32.33951783 4.47371783 32.337668 6.43066406 32.33349609 C9.43299414 32.32814695 12.4351746 32.33344325 15.4375 32.33984375 C17.33593783 32.33918296 19.23437557 32.33790177 21.1328125 32.3359375 C22.03491455 32.33796173 22.9370166 32.33998596 23.86645508 32.34207153 C25.11785278 32.33734329 25.11785278 32.33734329 26.39453125 32.33251953 C27.13018311 32.33172394 27.86583496 32.33092834 28.6237793 32.33010864 C30.54489105 32.31330616 30.54489105 32.31330616 32.4453125 31.203125 C32.4453125 29.883125 32.4453125 28.563125 32.4453125 27.203125 C29.62529923 25.79311836 27.57523995 25.95764049 24.4453125 26.203125 C23.6615625 26.698125 22.8778125 27.193125 22.0703125 27.703125 C16.5164006 30.87678894 10.94948049 29.15562533 5.0703125 27.703125 C-4.32673522 25.34136194 -4.32673522 25.34136194 -13.5546875 27.203125 Z M-12.5546875 36.203125 C-11.8946875 37.523125 -11.2346875 38.843125 -10.5546875 40.203125 C2.6453125 40.203125 15.8453125 40.203125 29.4453125 40.203125 C30.1053125 38.883125 30.7653125 37.563125 31.4453125 36.203125 C16.9253125 36.203125 2.4053125 36.203125 -12.5546875 36.203125 Z " fill="#000000" transform="translate(58.5546875,47.796875)"/>
<path d="M0 0 C6.46237974 0.41646447 12.21276487 0.9244302 16.8125 6 C18 8 18 8 19 11 C20.24873901 11.01401855 20.24873901 11.01401855 21.52270508 11.02832031 C24.61502289 11.07236366 27.70634946 11.13398775 30.7980957 11.20751953 C32.79289131 11.24958649 34.78808082 11.27137864 36.78320312 11.29296875 C38.03681641 11.32519531 39.29042969 11.35742188 40.58203125 11.390625 C41.73936768 11.41157227 42.8967041 11.43251953 44.08911133 11.45410156 C47 12 47 12 48.90112305 13.91308594 C50 16 50 16 50 18 C50.804375 18.144375 51.60875 18.28875 52.4375 18.4375 C55 19 55 19 56 20 C56.07205511 21.68608966 56.08386068 23.37500659 56.0625 25.0625 C56.05347656 25.98160156 56.04445312 26.90070312 56.03515625 27.84765625 C56.02355469 28.55792969 56.01195312 29.26820312 56 30 C54.68 30 53.36 30 52 30 C52.01160156 30.59167969 52.02320313 31.18335937 52.03515625 31.79296875 C52.08322386 36.00231785 52.06006883 39.8922333 51 44 C49.35 44 47.7 44 46 44 C46.33 39.38 46.66 34.76 47 30 C32.48 30 17.96 30 3 30 C3.3609375 33.444375 3.721875 36.88875 4.09375 40.4375 C4.44222656 43.79010089 4.78929549 47.14284474 5.13623047 50.49560547 C5.37727261 52.81769873 5.61976767 55.13964166 5.86376953 57.46142578 C6.21512895 60.80722791 6.56118349 64.15354372 6.90625 67.5 C7.0156189 68.5305249 7.12498779 69.5610498 7.2376709 70.62280273 C7.79865114 76.11702286 8.11505585 81.47731937 8 87 C8.59014893 87.0093457 9.18029785 87.01869141 9.78833008 87.02832031 C12.46390205 87.08202657 15.13772553 87.16566852 17.8125 87.25 C18.74126953 87.26417969 19.67003906 87.27835937 20.62695312 87.29296875 C21.51962891 87.32519531 22.41230469 87.35742188 23.33203125 87.390625 C24.15421143 87.41157227 24.9763916 87.43251953 25.82348633 87.45410156 C28.71299821 88.17882939 29.47376173 89.52175171 31 92 C26.89606988 92.11591764 22.79255894 92.18715601 18.6875 92.25 C17.52025391 92.28351563 16.35300781 92.31703125 15.15039062 92.3515625 C13.47299805 92.37089844 13.47299805 92.37089844 11.76171875 92.390625 C10.2142395 92.4220459 10.2142395 92.4220459 8.63549805 92.45410156 C6 92 6 92 4.38525391 90.27220154 C2.84884884 87.75207007 2.48803712 86.11154306 2.20043945 83.19067383 C2.10056229 82.23900833 2.00068512 81.28734283 1.89778137 80.30683899 C1.75695381 78.77243416 1.75695381 78.77243416 1.61328125 77.20703125 C1.50654587 76.1464299 1.39981049 75.08582855 1.2898407 73.99308777 C1.06636871 71.74850475 0.84905809 69.50330101 0.63745117 67.25756836 C0.31523438 63.84148939 -0.0252058 60.42762565 -0.36914062 57.01367188 C-0.58441132 54.82823092 -0.79863751 52.64268677 -1.01171875 50.45703125 C-1.11167648 49.44421585 -1.21163422 48.43140045 -1.31462097 47.38789368 C-1.85915872 41.56179158 -2.09551765 35.85149449 -2 30 C-3.32 30 -4.64 30 -6 30 C-6.05395478 28.37536158 -6.09277195 26.75021459 -6.125 25.125 C-6.15980469 23.76761719 -6.15980469 23.76761719 -6.1953125 22.3828125 C-6 20 -6 20 -4 18 C-2.68 18 -1.36 18 0 18 C0.309375 17.195625 0.61875 16.39125 0.9375 15.5625 C2 13 2 13 3 12 C4.68608966 11.92794489 6.37500659 11.91613932 8.0625 11.9375 C8.98160156 11.94652344 9.90070312 11.95554687 10.84765625 11.96484375 C11.55792969 11.97644531 12.26820312 11.98804688 13 12 C10.73931948 8.42497033 8.75943968 7.18525079 4.8125 5.75 C3.91144531 5.41484375 3.01039062 5.0796875 2.08203125 4.734375 C1.39496094 4.49203125 0.70789063 4.2496875 0 4 C0 2.68 0 1.36 0 0 Z M5.16015625 18.47119141 C4.77730469 19.30569824 4.39445313 20.14020508 4 21 C2.35008418 21.70710678 0.68437744 22.37943989 -1 23 C-1.33 23.99 -1.66 24.98 -2 26 C15.82 26 33.64 26 52 26 C51.34 24.68 50.68 23.36 50 22 C49.360625 21.855625 48.72125 21.71125 48.0625 21.5625 C47.381875 21.376875 46.70125 21.19125 46 21 C45.62875 20.17709473 45.2575 19.35418945 44.875 18.50634766 C43.14850054 15.60450688 43.14850054 15.60450688 39.40234375 15.35302734 C37.91441729 15.32003679 36.42566108 15.31618576 34.9375 15.3359375 C34.14980225 15.33115387 33.36210449 15.32637024 32.55053711 15.32144165 C30.88621014 15.31804128 29.22181651 15.32725366 27.55761719 15.34814453 C25.00825258 15.37491335 22.46328998 15.34840698 19.9140625 15.31640625 C18.29686527 15.31971033 16.67967078 15.32611654 15.0625 15.3359375 C14.29993896 15.32581635 13.53737793 15.31569519 12.75170898 15.30526733 C8.23449747 15.38088614 8.23449747 15.38088614 5.16015625 18.47119141 Z " fill="#000000" transform="translate(10,0)"/>
<path d="M0 0 C0.99 0 1.98 0 3 0 C3 0.99 3 1.98 3 3 C2.01 3 1.02 3 0 3 C0 2.01 0 1.02 0 0 Z " fill="#000000" transform="translate(57,58)"/>
<path d="M0 0 C0.99 0 1.98 0 3 0 C3 0.99 3 1.98 3 3 C2.01 3 1.02 3 0 3 C0 2.01 0 1.02 0 0 Z " fill="#000000" transform="translate(53,56)"/>
<path d="M0 0 C0.99 0 1.98 0 3 0 C3 0.99 3 1.98 3 3 C2.01 3 1.02 3 0 3 C0 2.01 0 1.02 0 0 Z " fill="#000000" transform="translate(59,54)"/>
</svg>
